<svg width="21" height="18" viewBox="0 0 21 18" fill="none" xmlns="http://www.w3.org/2000/svg">
    <path d="M1.41708 7.73929C7.87723 4.80906 16.2404 1.24295 17.3923 0.748379C20.422 -0.545683 21.35 -0.296539 20.8878 2.56676C20.5556 4.62313 19.5951 11.4356 18.8295 15.6784C18.3745 18.1922 17.3562 18.4897 15.7565 17.4039C14.9838 16.8795 11.0983 14.2319 10.2533 13.6109C9.48415 13.042 8.4225 12.3615 9.75497 11.0191C10.228 10.5431 13.3335 7.48643 15.7565 5.10654C16.0743 4.7979 15.6735 4.28474 15.3088 4.53388C12.0444 6.76131 7.51974 9.85516 6.94558 10.2568C6.07532 10.8666 5.24117 11.1455 3.73898 10.6993C2.60872 10.3646 1.50013 9.96672 1.07041 9.81426C-0.590666 9.22672 -0.197062 8.46813 1.41708 7.73929Z" fill="white"/>
</svg>
